<?xml version="1.0" encoding="UTF-8"?>
<svg version="1.1" xmlns="http://www.w3.org/2000/svg" width="500" height="500">
<path d="M0 0 C165 0 330 0 500 0 C500 165 500 330 500 500 C335 500 170 500 0 500 C0 335 0 170 0 0 Z " fill="#000000" transform="translate(0,0)"/>
<path d="M0 0 C3.53571429 0.53571429 3.53571429 0.53571429 5 2 C5.14115161 4.67058851 5.04247107 7.32432238 5 10 C4.01 10.33 3.02 10.66 2 11 C2 11.66 2 12.32 2 13 C2.71953857 12.87882813 3.43907715 12.75765625 4.18041992 12.6328125 C7.51441305 12.07772519 10.85084025 11.53881685 14.1875 11 C15.31865234 10.80921875 16.44980469 10.6184375 17.61523438 10.421875 C38.51344128 7.08768814 38.51344128 7.08768814 45 11 C45 12.32 45 13.64 45 15 C44.23300781 14.96519531 43.46601563 14.93039063 42.67578125 14.89453125 C33.26011527 14.66488086 24.36115426 15.79144262 15.078125 17.24609375 C10.06849431 18.02482817 5.04850139 18.54736178 0 19 C0.02054443 19.67836914 0.04108887 20.35673828 0.06225586 21.05566406 C0.19943719 26.3998642 -0.15154129 31.46369996 -0.9375 36.75 C-4.42417723 62.30253913 -3.09102338 88.77011494 -2.96337891 114.48242188 C-2.95907867 115.6887175 -2.95477844 116.89501312 -2.9503479 118.13786316 C-2.94193388 120.43436122 -2.92937564 122.73084872 -2.91220093 125.02729797 C-2.90732162 126.56029793 -2.90732162 126.56029793 -2.90234375 128.12426758 C-2.89710693 129.02115799 -2.89187012 129.9180484 -2.88647461 130.84211731 C-3 133 -3 133 -4 135 C-5.875 134.6875 -5.875 134.6875 -8 134 C-10.0225534 130.9661699 -10.25577087 130.31241136 -10.31884766 126.89575195 C-10.34865219 125.6648156 -10.34865219 125.6648156 -10.37905884 124.40901184 C-10.39061005 123.52767075 -10.40216125 122.64632965 -10.4140625 121.73828125 C-10.44311172 120.37959175 -10.44311172 120.37959175 -10.4727478 118.99345398 C-10.53253542 116.09989849 -10.57892568 113.2063032 -10.625 110.3125 C-10.66318054 108.35089409 -10.70223231 106.38930494 -10.7421875 104.42773438 C-10.83823632 99.6186256 -10.92227043 94.80943834 -11 90 C-11.47630859 90.54849609 -11.95261719 91.09699219 -12.44335938 91.66210938 C-13.07048828 92.38205078 -13.69761719 93.10199219 -14.34375 93.84375 C-14.96443359 94.55724609 -15.58511719 95.27074219 -16.22460938 96.00585938 C-19.50535727 99.69083584 -21.53693995 101.76486535 -26.5 102.5625 C-31.05491524 101.83046005 -32.27849481 100.70427096 -35 97 C-38.25388806 90.35664522 -38.64244604 83.28670317 -39 76 C-39.35191406 76.59425781 -39.70382812 77.18851562 -40.06640625 77.80078125 C-50.76923077 95.76923077 -50.76923077 95.76923077 -53 98 C-54.99958364 98.04080783 -57.00045254 98.04254356 -59 98 C-59.99 94.535 -59.99 94.535 -61 91 C-61.54527344 91.433125 -62.09054687 91.86625 -62.65234375 92.3125 C-67.35982483 95.78879372 -70.96396557 97.9543967 -76.921875 97.52734375 C-81.28317464 96.42062298 -83.8505406 93.67194094 -86.375 90 C-87.12860024 87.58847922 -87.13952346 85.51142219 -87 83 C-89.98237935 85.61644324 -91.68171617 88.69324345 -93.625 92.125 C-96.91666667 97.91666667 -96.91666667 97.91666667 -98 99 C-103.36335595 99.46637878 -103.36335595 99.46637878 -105.6796875 97.76953125 C-107.36531176 95.51039577 -107.34192984 94.22757075 -107.25 91.4375 C-107.23453125 90.65246094 -107.2190625 89.86742187 -107.203125 89.05859375 C-107 87 -107 87 -106 85 C-108.93238803 86.9102697 -111.8438893 88.8411394 -114.73046875 90.8203125 C-118 93 -118 93 -120.80078125 94.4921875 C-123.57942122 96.1318953 -125.20782533 97.29829668 -127 100 C-127.35429555 103.55402724 -127.32414924 106.82499179 -127.12158203 110.37646484 C-126.62616666 120.18483878 -130.20596431 128.86780183 -136.47265625 136.41015625 C-139.98229942 140.06341653 -143.04414469 142.19554934 -148.125 142.5625 C-152 142 -152 142 -154.5 140.0625 C-156.57405273 135.82797567 -156.83283051 132.62847398 -156 128 C-152.95988236 119.20187152 -146.84092959 111.34097485 -139.9375 105.1875 C-137.73869192 103.19941307 -137.73869192 103.19941307 -138.03125 100.6953125 C-139.33497687 97.0680079 -141.6940274 95.10475219 -144.5625 92.6875 C-145.34270508 92.0059082 -145.34270508 92.0059082 -146.13867188 91.31054688 C-147.41677066 90.19660757 -148.70720655 89.09685112 -150 88 C-150.43570313 88.39832031 -150.87140625 88.79664063 -151.3203125 89.20703125 C-157.11061264 94.35814242 -161.89604406 97.68469439 -169.890625 97.3359375 C-173.33449649 96.78746908 -174.74415335 95.64256322 -177 93 C-178.53309129 90.06998013 -179.81914737 87.0873689 -181 84 C-181.83144531 85.37285156 -181.83144531 85.37285156 -182.6796875 86.7734375 C-183.41130998 87.97404875 -184.14308898 89.17456463 -184.875 90.375 C-185.23980469 90.97828125 -185.60460937 91.5815625 -185.98046875 92.203125 C-187.50946322 94.70511595 -188.91871354 96.91871354 -191 99 C-194 99.25 -194 99.25 -197 99 C-199.58865107 96.41134893 -199.3569696 95.23465685 -199.4375 91.625 C-199.19801853 80.50241626 -194.49783461 72.77670975 -186.98828125 64.86328125 C-183.80113192 61.8765028 -181.40612686 61.6592115 -177.04296875 61.71484375 C-173.78642113 62.16939055 -172.14153077 63.59077788 -170 66 C-170 67.32 -170 68.64 -170 70 C-174.875 69.125 -174.875 69.125 -176 68 C-178.28341743 67.32845316 -178.28341743 67.32845316 -181 68 C-187.82470129 73.73974878 -190.95346439 81.37903339 -192 90 C-191.70754395 89.49549316 -191.41508789 88.99098633 -191.11376953 88.47119141 C-189.78738762 86.18724699 -188.45625654 83.90610626 -187.125 81.625 C-186.66480469 80.8309375 -186.20460937 80.036875 -185.73046875 79.21875 C-185.28574219 78.45820313 -184.84101563 77.69765625 -184.3828125 76.9140625 C-183.77010498 75.8614624 -183.77010498 75.8614624 -183.14501953 74.78759766 C-182 73 -182 73 -180 71 C-176.46428571 71.53571429 -176.46428571 71.53571429 -175 73 C-174.86744524 74.89406018 -174.76916391 76.79056412 -174.6875 78.6875 C-174.26799889 84.02024895 -173.87999769 87.22486711 -170 91 C-167.17659226 92.00309237 -167.17659226 92.00309237 -164 91 C-159.54914062 88.36495612 -155.84739042 85.35135332 -153 81 C-152.71125 79.865625 -152.4225 78.73125 -152.125 77.5625 C-150.47816175 72.3475122 -147.45486951 69.969913 -143 67 C-139.8125 66.875 -139.8125 66.875 -137 67 C-136.625 69.25 -136.625 69.25 -137 72 C-139.9375 74.25 -139.9375 74.25 -143 76 C-144.27794071 77.08664955 -144.27794071 77.08664955 -144.46875 79.6640625 C-143.78677522 84.5174497 -141.13107291 86.31765171 -137.5 89.375 C-136.56994141 90.19291016 -136.56994141 90.19291016 -135.62109375 91.02734375 C-134.09382287 92.36664283 -132.54858528 93.68540425 -131 95 C-125.0797055 91.77630416 -119.84282689 88.00780614 -114.51757812 83.890625 C-110.7553387 81.05441567 -107.55353425 79.39687366 -103 78 C-101.91257306 75.78566059 -101.91257306 75.78566059 -101 73 C-94.28412046 62.70499902 -94.28412046 62.70499902 -88.81640625 61.53125 C-84.42088832 61.47030694 -82.56517099 61.57323823 -78.9375 64.3125 C-77 67 -77 67 -77 70 C-77.70125 69.855625 -78.4025 69.71125 -79.125 69.5625 C-80.548125 69.2840625 -80.548125 69.2840625 -82 69 C-82.99 68.71125 -83.98 68.4225 -85 68.125 C-88.08748562 67.69909295 -88.08748562 67.69909295 -90.5 69.6875 C-95.01273551 74.89111032 -99 82.11529214 -99 89 C-98.72325439 88.49025635 -98.44650879 87.9805127 -98.16137695 87.45532227 C-96.89575494 85.14770219 -95.60464305 82.8553666 -94.3125 80.5625 C-93.65991211 79.35883789 -93.65991211 79.35883789 -92.99414062 78.13085938 C-89.64822078 72.2569112 -89.64822078 72.2569112 -86.23046875 70.90234375 C-84 71 -84 71 -83 72 C-82.49778963 75.48807929 -82.09813129 78.9835135 -81.6953125 82.484375 C-80.99865673 86.00679183 -80.18316857 88.16878626 -78 91 C-74.19387205 91.76122559 -72.40735135 91.22064865 -69 89.375 C-68.01 88.59125 -67.02 87.8075 -66 87 C-64.96875 86.195625 -63.9375 85.39125 -62.875 84.5625 C-59.17367696 80.79370492 -58.29897163 76.05871923 -56.9453125 71.08203125 C-55.81843428 67.40803572 -54.38025689 64.97532111 -52 62 C-50.68 62.33 -49.36 62.66 -48 63 C-47.77487999 67.65717024 -48.51420727 71.21921183 -50 75.625 C-51.27597671 79.42634728 -52 81.95441064 -52 86 C-51.32453125 84.95199219 -50.6490625 83.90398437 -49.953125 82.82421875 C-49.05245587 81.44506914 -48.15139349 80.06617629 -47.25 78.6875 C-46.8065625 77.99720703 -46.363125 77.30691406 -45.90625 76.59570312 C-41.60023155 70.04168976 -41.60023155 70.04168976 -38 68 C-35.875 67.9375 -35.875 67.9375 -34 69 C-32.11924407 73.50569587 -31.69858577 77.58704265 -31.5 82.4375 C-31.28498964 87.67837751 -30.58638032 92.04256151 -29 97 C-23.79046473 96.25578068 -21.56436098 94.93800278 -18.3125 90.75 C-17.18211992 89.1852734 -16.07944202 87.60029166 -15 86 C-14.32630371 85.18466797 -13.65260742 84.36933594 -12.95849609 83.52929688 C-10.02575025 79.09725502 -10.20243126 74.21379499 -9.98828125 69.046875 C-9.90044624 67.46377533 -9.90044624 67.46377533 -9.81083679 65.84869385 C-9.62760032 62.4831082 -9.46935255 59.1169086 -9.3125 55.75 C-9.13941223 52.39784269 -8.96123428 49.04598806 -8.7820282 45.69415283 C-8.672615 43.61297715 -8.56769298 41.53155858 -8.46809387 39.44989014 C-8.16555792 33.27464876 -7.67935456 27.14536475 -7 21 C-16.29430418 23.48287558 -25.54185764 26.07283694 -34.6875 29.0625 C-35.41630371 29.29533691 -36.14510742 29.52817383 -36.89599609 29.76806641 C-41.64641093 31.35007624 -45.77170129 33.30235628 -50 36 C-50.33 36.66 -50.66 37.32 -51 38 C-52.98 38 -54.96 38 -57 38 C-57 34 -57 34 -54.515625 31.4609375 C-50.88039526 28.68467395 -47.0382367 27.13396824 -42.75 25.625 C-41.94876709 25.3273877 -41.14753418 25.02977539 -40.32202148 24.72314453 C-35.30755289 22.93087945 -30.3194252 21.57495854 -25.11328125 20.453125 C-13.97924394 18.72325228 -13.97924394 18.72325228 -4.49169922 13.45556641 C-2.44614665 9.81292924 -2.22857797 6.08583114 -2 2 C-1.34 1.34 -0.68 0.68 0 0 Z " fill="#F4F3EE" transform="translate(355,150)"/>
<path d="M0 0 C1.9375 0.25 1.9375 0.25 4 1 C11.01339465 11.52009197 8.30831787 30.9720736 8.25 43.125 C8.24822754 44.20090393 8.24645508 45.27680786 8.24462891 46.38531494 C8.21804833 60.24785449 7.87285674 74.04097973 7 87.875 C6.04250608 103.08708059 5.77439049 118.25843532 5.75 133.5 C5.74500488 134.56297302 5.74000977 135.62594604 5.73486328 136.72113037 C5.64304198 160.38210168 5.74027513 185.22342983 16 207 C18.60790045 206.01515996 19.80004267 205.3269241 21.2734375 202.91796875 C24.31415967 195.38085953 26.59821429 187.74149376 28.76904297 179.91479492 C30.21091766 174.71859627 31.74934191 169.60047501 33.5 164.5 C35.40881496 158.9258264 37.07379276 153.31795306 38.66015625 147.64453125 C42.20943305 135.09388345 46.07164981 122.64351956 49.9375 110.1875 C51.30309818 105.78586996 52.66669617 101.38363178 54.02734375 96.98046875 C54.35948883 95.90620636 54.69163391 94.83194397 55.03384399 93.72512817 C57.6673841 85.1685994 60.19004817 76.58211852 62.63572693 67.97001648 C68.43773398 47.74015765 68.43773398 47.74015765 74 41 C75.98 41.495 75.98 41.495 78 42 C77.40030276 45.25647054 76.6310655 48.32177238 75.546875 51.44921875 C75.25989746 52.2882373 74.97291992 53.12725586 74.67724609 53.99169922 C74.37125488 54.88131348 74.06526367 55.77092773 73.75 56.6875 C71.42559885 63.53705244 69.253807 70.38980944 67.375 77.375 C65.5687207 84.09054086 63.49604325 90.64284822 61.25 97.2265625 C59.90925893 101.2739246 58.68779913 105.34330489 57.5 109.4375 C54.92106907 118.32675256 52.16167943 127.15355595 49.375 135.97949219 C47.0788335 143.25905754 44.82508449 150.54618377 42.69140625 157.875 C40.25132943 166.20607414 37.72954635 174.50994928 35.14282227 182.79663086 C34.6678757 184.32241109 34.19592683 185.8491273 33.72680664 187.37670898 C26.80778643 209.90103743 26.80778643 209.90103743 19 215 C16.5 215.75 16.5 215.75 14 215 C-0.61969628 202.20776575 -1.73425699 174.02282049 -3 156 C-3.37945987 147.027392 -3.35259803 138.05389835 -3.28125 129.07519531 C-3.24986018 125.1073257 -3.24023036 121.1398572 -3.234375 117.171875 C-3.20210823 106.60479733 -3.14731382 96.05416096 -2.515625 85.50390625 C-1.94503975 75.97266681 -1.82963944 66.43972069 -1.71875 56.89453125 C-1.70918022 56.08394005 -1.69961044 55.27334885 -1.68975067 54.43819427 C-1.61129343 47.69435747 -1.54138228 40.95043693 -1.47393799 34.20648193 C-1.42307835 29.13012121 -1.3684324 24.0538329 -1.30812073 18.9775753 C-1.28159357 16.61266073 -1.26078747 14.24773861 -1.2401123 11.88276672 C-1.22353058 10.4515447 -1.20666067 9.02032597 -1.18945312 7.58911133 C-1.17692505 6.33705399 -1.16439697 5.08499664 -1.15148926 3.79499817 C-1 1 -1 1 0 0 Z " fill="#F3F3EE" transform="translate(92,117)"/>
<path d="M0 0 C0.67256836 0.16628906 1.34513672 0.33257812 2.03808594 0.50390625 C22.23329715 5.55037273 38.82510209 14.95769318 54.6875 28.3125 C55.58891724 29.06805176 55.58891724 29.06805176 56.50854492 29.83886719 C59.36604389 32.30972694 61.676527 34.40527656 63 38 C59.97286039 39.26717472 57.83916389 40.15061916 54.5625 39.5625 C52.22973778 38.14008402 50.95243112 36.96692968 49.125 35 C32.18540765 17.36224658 3.76878333 6.42263843 -20.41796875 5.69921875 C-22.6744013 5.68006986 -24.9310126 5.67658591 -27.1875 5.6875 C-28.37496826 5.69168945 -29.56243652 5.69587891 -30.78588867 5.70019531 C-39.89414407 5.81692802 -48.18286454 6.71407599 -57 9 C-58.15886719 9.26683594 -59.31773437 9.53367188 -60.51171875 9.80859375 C-73.28323388 13.0265007 -84.74108393 19.21259265 -95.66796875 26.45703125 C-96.43753906 26.96621094 -97.20710937 27.47539062 -98 28 C-99.2684375 28.88171875 -99.2684375 28.88171875 -100.5625 29.78125 C-103 31 -103 31 -105.01953125 30.63671875 C-106.6796875 29.7578125 -108.33984375 28.87890625 -110 28 C-84.03958207 -0.6459784 -36.13237395 -9.4324513 0 0 Z " fill="#F5F4F0" transform="translate(276,124)"/>
<path d="M0 0 C1.32 0 2.64 0 4 0 C4.32568017 8.12682924 3.30977728 15.85617235 2.0625 23.875 C-0.19789697 38.61949758 -1.14559544 52.8618055 -1.0625 67.75 C-1.05747097 69.33333191 -1.05291057 70.91666537 -1.04882812 72.5 C-1.03794281 76.33337272 -1.02075696 80.16666854 -1 84 C-0.52929077 82.53348999 -0.52929077 82.53348999 -0.04907227 81.03735352 C2.29634242 73.81293173 4.72110879 66.77429445 8.0625 59.9375 C8.38798828 59.24462891 8.71347656 58.55175781 9.04882812 57.83789062 C11.04945453 53.65836418 13.14549303 49.673285 16 46 C19.75 45.125 19.75 45.125 23 45 C24.67011121 47.93602884 25.26119227 50.10948838 25.34375 53.4765625 C25.37339844 54.311875 25.40304687 55.1471875 25.43359375 56.0078125 C25.47806268 57.76041165 25.52233176 59.51301588 25.56640625 61.265625 C25.59605469 62.09835938 25.62570312 62.93109375 25.65625 63.7890625 C25.68428711 64.92915771 25.68428711 64.92915771 25.71289062 66.09228516 C25.84279764 68.23879663 25.84279764 68.23879663 28 70 C33.18695852 65.27071429 36.8714151 59.71579561 40.3515625 53.640625 C40.77179688 52.91359375 41.19203125 52.1865625 41.625 51.4375 C41.98851562 50.77621094 42.35203125 50.11492187 42.7265625 49.43359375 C43.14679688 48.96050781 43.56703125 48.48742187 44 48 C45.32 48 46.64 48 48 48 C47.48754494 53.35598189 45.63257317 57.01090114 42.875 61.5 C42.46975098 62.16273926 42.06450195 62.82547852 41.64697266 63.50830078 C35.14160444 73.82830837 35.14160444 73.82830837 29.01171875 75.5625 C27.0625 75.875 27.0625 75.875 24 76 C19.84576863 70.10367161 18.93635269 66.37646707 18.4375 59.25 C18.31181641 57.49429688 18.31181641 57.49429688 18.18359375 55.703125 C18.09271484 54.36507812 18.09271484 54.36507812 18 53 C12.20113446 64.2689972 7.63454696 75.38859617 4.20874023 87.60766602 C3.94520752 88.54280029 3.6816748 89.47793457 3.41015625 90.44140625 C3.18465088 91.27357666 2.95914551 92.10574707 2.72680664 92.96313477 C2 95 2 95 0 97 C-2.625 96.625 -2.625 96.625 -5 96 C-14.88435322 71.38236556 -11.78406745 27.3465376 -1.37109375 2.9375 C-0.91863281 1.968125 -0.46617187 0.99875 0 0 Z " fill="#F2F1ED" transform="translate(369,181)"/>
<path d="M0 0 C1 2 1 2 0.109375 4.79296875 C-0.56351563 6.47326172 -0.56351563 6.47326172 -1.25 8.1875 C-1.68828125 9.29480469 -2.1265625 10.40210938 -2.578125 11.54296875 C-3.04734375 12.68378906 -3.5165625 13.82460937 -4 15 C-4.46148437 16.12921875 -4.92296875 17.2584375 -5.3984375 18.421875 C-6.86670598 21.70220165 -8.47732084 24.806667 -10.21069336 27.94946289 C-18.03823009 42.15523568 -22.85409859 56.06612451 -23.75 72.3125 C-24.50024287 83.57136514 -27.05141493 93.47043982 -31 104 C-34.24646022 98.64443114 -33.33923651 92.43883954 -33.3125 86.375 C-33.30686035 85.06499023 -33.3012207 83.75498047 -33.29541016 82.40527344 C-32.92532684 52.68868258 -22.78933357 23.2702892 -1.7109375 1.65234375 C-1.14632812 1.10707031 -0.58171875 0.56179687 0 0 Z " fill="#F5F4EF" transform="translate(156,161)"/>
<path d="M0 0 C2.31 1.32 4.62 2.64 7 4 C1.52059203 27.74410119 -15.00618058 47.44793061 -33 63 C-34.70884005 61.37660195 -36.37446717 59.70680947 -38 58 C-38 57.34 -38 56.68 -38 56 C-36.53125 54.5546875 -36.53125 54.5546875 -34.5 52.875 C-17.80860305 38.55553841 -6.73245465 20.90604339 0 0 Z " fill="#F6F5F0" transform="translate(359,280)"/>
<path d="M0 0 C2.23495929 2.23495929 3.00453929 4.04387962 4.25 6.9375 C11.77021018 23.69993949 21.85387134 36.39412321 35 49 C36.00317626 49.99681362 37.00507175 50.99495384 38 52 C36.02 54.475 36.02 54.475 34 57 C28.90845014 55.50979028 25.93435459 52.43403449 22.3125 48.75 C21.69818115 48.12883301 21.0838623 47.50766602 20.45092773 46.86767578 C11.29673621 37.39485968 -1.97076325 22.45105966 -3 9 C-2.44140625 6.4453125 -2.44140625 6.4453125 -1.5625 4.125 C-1.27503906 3.34382813 -0.98757812 2.56265625 -0.69140625 1.7578125 C-0.46324219 1.17773438 -0.23507813 0.59765625 0 0 Z " fill="#F4F3EF" transform="translate(137,286)"/>
<path d="M0 0 C0.83252447 9.99029366 -2.78022126 19.17511706 -9 27 C-11 28.9375 -11 28.9375 -13 30 C-15.125 29.56640625 -15.125 29.56640625 -17 29 C-17.1757613 17.42486271 -10.82143973 9.74576299 -3.48046875 1.36328125 C-2 0 -2 0 0 0 Z " fill="#0D0D0C" transform="translate(221,257)"/>
<path d="M0 0 C3.7 1.4 3.7 1.4 5 4 C5.35872645 7.87424565 5.56710729 10.14933906 3.375 13.4375 C0.24316508 15.49791771 -1.31544773 15.6767545 -5 15 C-8.36344489 12.51397551 -9.80057749 11.08574477 -10.5625 6.9375 C-9.38156885 0.77041511 -5.95828782 -0.74478598 0 0 Z " fill="#F0EFEA" transform="translate(219,355)"/>
<path d="M0 0 C0.99 0 1.98 0 3 0 C3.33 3.3 3.66 6.6 4 10 C5.093125 9.319375 6.18625 8.63875 7.3125 7.9375 C9.17578125 6.77734375 9.17578125 6.77734375 11 6 C11.99 6.33 12.98 6.66 14 7 C12.35821735 11.77609498 9.73453298 15.79382904 7 20 C6.34 19.67 5.68 19.34 5 19 C5.309375 18.236875 5.61875 17.47375 5.9375 16.6875 C6.67893593 14.81210323 7.36228217 12.91315348 8 11 C5.69 12.32 3.38 13.64 1 15 C0.29925156 11.846632 0 9.27275026 0 6 C-1.32 8.31 -2.64 10.62 -4 13 C-4.66 13 -5.32 13 -6 13 C-5.53851564 8.07750013 -3.19609831 3.72262318 0 0 Z " fill="#E3E2DE" transform="translate(181,339)"/>
<path d="M0 0 C3.78155989 1.26051996 4.25618367 2.56446606 6.25 5.9375 C6.79140625 6.83339844 7.3328125 7.72929687 7.890625 8.65234375 C8.25671875 9.42707031 8.6228125 10.20179688 9 11 C8.67 11.66 8.34 12.32 8 13 C3.61110675 12.33501617 0.0188515 10.81242323 -4 9 C-3.34 10.11375 -2.68 11.2275 -2 12.375 C0 15.75 0 15.75 0 18 C-3.3772445 16.60724746 -4.87070305 15.17726069 -6.75 12.0625 C-7.17796875 11.37285156 -7.6059375 10.68320312 -8.046875 9.97265625 C-9 8 -9 8 -9 5 C-4.15340923 5.59104765 -0.39251833 6.97944157 4 9 C3.34 8.071875 2.68 7.14375 2 6.1875 C0 3 0 3 0 0 Z " fill="#E4E3DE" transform="translate(312,339)"/>
<path d="M0 0 C3.06382739 0.32432407 3.98970965 0.98901487 6.140625 3.28515625 C6.83671875 4.20167969 7.5328125 5.11820312 8.25 6.0625 C8.95640625 6.98160156 9.6628125 7.90070313 10.390625 8.84765625 C10.92171875 9.55792969 11.4528125 10.26820313 12 11 C11.34 11.66 10.68 12.32 10 13 C9.443125 12.649375 8.88625 12.29875 8.3125 11.9375 C5.46113217 10.78154007 3.91482778 11.19032562 1 12 C1 13.32 1 14.64 1 16 C0.01 16 -0.98 16 -2 16 C-1.50130596 10.63108121 -0.97772468 5.30764827 0 0 Z " fill="#DCDBD7" transform="translate(279,354)"/>
<path d="M0 0 C0.99 0 1.98 0 3 0 C3 1.98 3 3.96 3 6 C5.64 6 8.28 6 11 6 C11 4.02 11 2.04 11 0 C11.66 0 12.32 0 13 0 C13 4.62 13 9.24 13 14 C12.34 14 11.68 14 11 14 C11 12.35 11 10.7 11 9 C8.36 9 5.72 9 3 9 C3 10.98 3 12.96 3 15 C2.01 15 1.02 15 0 15 C0 10.05 0 5.1 0 0 Z " fill="#BFBEBB" transform="translate(243,359)"/>
<path d="M0 0 C2.4375 0.75 2.4375 0.75 4.4375 2.75 C4.6875 5.25 4.6875 5.25 4.4375 7.75 C2.4375 9.75 2.4375 9.75 -0.5625 10 C-3.5625 9.75 -3.5625 9.75 -5.5625 7.75 C-5.875 4.75 -5.875 4.75 -5.5625 1.75 C-2.5625 -0.25 -2.5625 -0.25 0 0 Z " fill="#0A0A0A" transform="translate(217.5625,357.25)"/>
<path d="M0 0 C0.99 0 1.98 0 3 0 C3.28571429 8.57142857 3.28571429 8.57142857 1 12 C0.67 10.02 0.34 8.04 0 6 C-1.32 8.31 -2.64 10.62 -4 13 C-4.66 13 -5.32 13 -6 13 C-5.53851564 8.07750013 -3.19609831 3.72262318 0 0 Z " fill="#F2F1EC" transform="translate(181,339)"/>
<path d="M0 0 C3.06382739 0.32432407 3.98970965 0.98901487 6.140625 3.28515625 C7.18476563 4.65994141 7.18476563 4.65994141 8.25 6.0625 C8.95640625 6.98160156 9.6628125 7.90070313 10.390625 8.84765625 C10.92171875 9.55792969 11.4528125 10.26820313 12 11 C11.34 11.66 10.68 12.32 10 13 C8.0625 12.25 8.0625 12.25 6 11 C5.375 9 5.375 9 5 7 C4.34 6.34 3.68 5.68 3 5 C2.01 5.495 2.01 5.495 1 6 C0.67 4.02 0.34 2.04 0 0 Z " fill="#E1E0DC" transform="translate(279,354)"/>
<path d="M0 0 C0.66 0 1.32 0 2 0 C2 4.62 2 9.24 2 14 C1.34 14 0.68 14 0 14 C0 12.02 0 10.04 0 8 C-2.31 8 -4.62 8 -7 8 C-7 7.67 -7 7.34 -7 7 C-4.69 7 -2.38 7 0 7 C0 4.69 0 2.38 0 0 Z " fill="#FFFEF9" transform="translate(254,359)"/>
<path d="M0 0 C0.185625 0.61875 0.37125 1.2375 0.5625 1.875 C2.71437233 5.05602866 5.37533763 5.19451947 9 6 C9 6.99 9 7.98 9 9 C3.58461538 9.36923077 3.58461538 9.36923077 0.625 7.5 C0.08875 7.005 -0.4475 6.51 -1 6 C-0.67 4.02 -0.34 2.04 0 0 Z " fill="#C8C7C3" transform="translate(211,361)"/>
<path d="M0 0 C0.66 0.33 1.32 0.66 2 1 C-0.9905167 4.33557632 -3.93184627 6.15083921 -8 8 C-8.33 6.35 -8.66 4.7 -9 3 C-8.01 2.34 -7.02 1.68 -6 1 C-5.67 1.66 -5.34 2.32 -5 3 C-4.21625 2.484375 -3.4325 1.96875 -2.625 1.4375 C-1.75875 0.963125 -0.8925 0.48875 0 0 Z " fill="#DAD9D5" transform="translate(190,346)"/>
<path d="M0 0 C0.66 0.33 1.32 0.66 2 1 C2 1.66 2 2.32 2 3 C1.525625 3.45375 1.05125 3.9075 0.5625 4.375 C-1.22093737 6.22977487 -1.5691993 7.50135592 -2 10 C-2.66 10 -3.32 10 -4 10 C-4.25 7.25 -4.25 7.25 -4 4 C-2 1.625 -2 1.625 0 0 Z " fill="#DEDDD9" transform="translate(213,355)"/>
<path d="M0 0 C0.99 0.33 1.98 0.66 3 1 C1.68 3.31 0.36 5.62 -1 8 C-1.66 8 -2.32 8 -3 8 C-2.45276317 4.62537285 -1.9451 2.91765 0 0 Z " fill="#DCDBD6" transform="translate(178,344)"/>
<path d="M0 0 C1.32 1.65 2.64 3.3 4 5 C2.35 5.66 0.7 6.32 -1 7 C-0.67 4.69 -0.34 2.38 0 0 Z " fill="#2B2B2A" transform="translate(281,357)"/>
<path d="M0 0 C0.33 0.66 0.66 1.32 1 2 C0.0625 4.625 0.0625 4.625 -1 7 C-1.99 7 -2.98 7 -4 7 C-4.99 7.495 -4.99 7.495 -6 8 C-4.55746343 4.63408134 -2.66735273 2.48952921 0 0 Z " fill="#ECEBE6" transform="translate(156,161)"/>
</svg>
